<?xml version="1.0" encoding="UTF-8" standalone="no"?><!DOCTYPE svg PUBLIC "-//W3C//DTD SVG 1.1//EN" "http://www.w3.org/Graphics/SVG/1.1/DTD/svg11.dtd"><!-- Generated by graphviz version 2.40.1 (20161225.0304)
 --><!-- Title: FCFS Pages: 1 --><svg xmlns="http://www.w3.org/2000/svg" xmlns:xlink="http://www.w3.org/1999/xlink" width="544pt" height="654pt" viewBox="0.00 0.00 544.22 654.40">
<g id="graph0" class="graph" transform="scale(1 1) rotate(0) translate(4 650.4)">
<title>FCFS</title>
<polygon fill="#ffffff" stroke="transparent" points="-4,4 -4,-650.4 540.2232,-650.4 540.2232,4 -4,4"/>
<!-- Start -->
<g id="node1" class="node">
<title>Start</title>
<polygon fill="#4caf50" stroke="#000000" points="295.1116,-646.4 241.1116,-646.4 241.1116,-610.4 295.1116,-610.4 295.1116,-646.4"/>
<text text-anchor="middle" x="268.1116" y="-624.2" font-family="Times,serif" font-size="14.00" fill="#ffffff">Start</text>
</g>
<!-- InputProcesses -->
<g id="node2" class="node">
<title>InputProcesses</title>
<polygon fill="#ff9800" stroke="#000000" points="352.1166,-574.4 184.1066,-574.4 184.1066,-538.4 352.1166,-538.4 352.1166,-574.4"/>
<text text-anchor="middle" x="268.1116" y="-552.2" font-family="Times,serif" font-size="14.00" fill="#ffffff">Input Number of Processes</text>
</g>
<!-- Start&#45;&gt;InputProcesses -->
<g id="edge1" class="edge">
<title>Start-&gt;InputProcesses</title>
<path fill="none" stroke="#000000" d="M268.1116,-610.2314C268.1116,-602.531 268.1116,-593.3743 268.1116,-584.8166"/>
<polygon fill="#000000" stroke="#000000" points="271.6117,-584.8132 268.1116,-574.8133 264.6117,-584.8133 271.6117,-584.8132"/>
</g>
<!-- InputTimes -->
<g id="node3" class="node">
<title>InputTimes</title>
<polygon fill="#03a9f4" stroke="#000000" points="422.457,-502.4 113.7662,-502.4 113.7662,-466.4 422.457,-466.4 422.457,-502.4"/>
<text text-anchor="middle" x="268.1116" y="-480.2" font-family="Times,serif" font-size="14.00" fill="#ffffff">Input Arrival Time and Burst Time for each Process</text>
</g>
<!-- InputProcesses&#45;&gt;InputTimes -->
<g id="edge2" class="edge">
<title>InputProcesses-&gt;InputTimes</title>
<path fill="none" stroke="#000000" d="M268.1116,-538.2314C268.1116,-530.531 268.1116,-521.3743 268.1116,-512.8166"/>
<polygon fill="#000000" stroke="#000000" points="271.6117,-512.8132 268.1116,-502.8133 264.6117,-512.8133 271.6117,-512.8132"/>
</g>
<!-- SortProcesses -->
<g id="node4" class="node">
<title>SortProcesses</title>
<polygon fill="#9c27b0" stroke="#000000" points="414.6605,-430.6014 121.5627,-430.6014 121.5627,-371.7986 414.6605,-371.7986 414.6605,-430.6014"/>
<text text-anchor="middle" x="268.1116" y="-413.8" font-family="Times,serif" font-size="14.00" fill="#ffffff">Sort Processes by Arrival Time</text>
<text text-anchor="middle" x="268.1116" y="-397" font-family="Times,serif" font-size="14.00" fill="#ffffff">- Compare the arrival times of all processes</text>
<text text-anchor="middle" x="268.1116" y="-380.2" font-family="Times,serif" font-size="14.00" fill="#ffffff">- Arrange them in increasing order of arrival time</text>
</g>
<!-- InputTimes&#45;&gt;SortProcesses -->
<g id="edge3" class="edge">
<title>InputTimes-&gt;SortProcesses</title>
<path fill="none" stroke="#000000" d="M268.1116,-466.3468C268.1116,-458.7769 268.1116,-449.656 268.1116,-440.6681"/>
<polygon fill="#000000" stroke="#000000" points="271.6117,-440.6667 268.1116,-430.6668 264.6117,-440.6668 271.6117,-440.6667"/>
</g>
<!-- InitializeMetrics -->
<g id="node5" class="node">
<title>InitializeMetrics</title>
<polygon fill="#ffeb3b" stroke="#000000" points="483.5538,-336.2014 52.6694,-336.2014 52.6694,-277.3986 483.5538,-277.3986 483.5538,-336.2014"/>
<text text-anchor="middle" x="268.1116" y="-319.4" font-family="Times,serif" font-size="14.00" fill="#000000">Initialize Metrics</text>
<text text-anchor="middle" x="268.1116" y="-302.6" font-family="Times,serif" font-size="14.00" fill="#000000">- Set current time to 0</text>
<text text-anchor="middle" x="268.1116" y="-285.8" font-family="Times,serif" font-size="14.00" fill="#000000">- Prepare to track Waiting Time, Turnaround Time, and Completion Time</text>
</g>
<!-- SortProcesses&#45;&gt;InitializeMetrics -->
<g id="edge4" class="edge">
<title>SortProcesses-&gt;InitializeMetrics</title>
<path fill="none" stroke="#000000" d="M268.1116,-371.8487C268.1116,-363.7682 268.1116,-354.8692 268.1116,-346.3162"/>
<polygon fill="#000000" stroke="#000000" points="271.6117,-346.1331 268.1116,-336.1331 264.6117,-346.1332 271.6117,-346.1331"/>
</g>
<!-- CalculateTimes -->
<g id="node6" class="node">
<title>CalculateTimes</title>
<polygon fill="#e91e63" stroke="#000000" points="402.996,-241.6 133.2272,-241.6 133.2272,-149.6 402.996,-149.6 402.996,-241.6"/>
<text text-anchor="middle" x="268.1116" y="-225" font-family="Times,serif" font-size="14.00" fill="#ffffff">For Each Process (in order of arrival):</text>
<text text-anchor="middle" x="268.1116" y="-208.2" font-family="Times,serif" font-size="14.00" fill="#ffffff">- Calculate Waiting Time</text>
<text text-anchor="middle" x="268.1116" y="-191.4" font-family="Times,serif" font-size="14.00" fill="#ffffff">- Calculate Turnaround Time</text>
<text text-anchor="middle" x="268.1116" y="-174.6" font-family="Times,serif" font-size="14.00" fill="#ffffff">- Calculate Completion Time</text>
<text text-anchor="middle" x="268.1116" y="-157.8" font-family="Times,serif" font-size="14.00" fill="#ffffff">- Update Current Time by adding Burst Time</text>
</g>
<!-- InitializeMetrics&#45;&gt;CalculateTimes -->
<g id="edge5" class="edge">
<title>InitializeMetrics-&gt;CalculateTimes</title>
<path fill="none" stroke="#000000" d="M268.1116,-277.5835C268.1116,-269.6354 268.1116,-260.7509 268.1116,-251.8444"/>
<polygon fill="#000000" stroke="#000000" points="271.6117,-251.8279 268.1116,-241.8279 264.6117,-251.828 271.6117,-251.8279"/>
</g>
<!-- PrintResults -->
<g id="node7" class="node">
<title>PrintResults</title>
<polygon fill="#00bcd4" stroke="#000000" points="536.3348,-113.4019 -.1116,-113.4019 -.1116,-72.1981 536.3348,-72.1981 536.3348,-113.4019"/>
<text text-anchor="middle" x="268.1116" y="-97" font-family="Times,serif" font-size="14.00" fill="#ffffff">Print Results for All Processes</text>
<text text-anchor="middle" x="268.1116" y="-80.2" font-family="Times,serif" font-size="14.00" fill="#ffffff">- Display Arrival Time, Burst Time, Waiting Time, Turnaround Time, and Completion Time</text>
</g>
<!-- CalculateTimes&#45;&gt;PrintResults -->
<g id="edge6" class="edge">
<title>CalculateTimes-&gt;PrintResults</title>
<path fill="none" stroke="#000000" d="M268.1116,-149.3124C268.1116,-140.6415 268.1116,-131.7747 268.1116,-123.712"/>
<polygon fill="#000000" stroke="#000000" points="271.6117,-123.6602 268.1116,-113.6602 264.6117,-123.6602 271.6117,-123.6602"/>
</g>
<!-- End -->
<g id="node8" class="node">
<title>End</title>
<polygon fill="#8bc34a" stroke="#000000" points="295.1116,-36 241.1116,-36 241.1116,0 295.1116,0 295.1116,-36"/>
<text text-anchor="middle" x="268.1116" y="-13.8" font-family="Times,serif" font-size="14.00" fill="#ffffff">End</text>
</g>
<!-- PrintResults&#45;&gt;End -->
<g id="edge7" class="edge">
<title>PrintResults-&gt;End</title>
<path fill="none" stroke="#000000" d="M268.1116,-71.964C268.1116,-64.0614 268.1116,-54.9223 268.1116,-46.4373"/>
<polygon fill="#000000" stroke="#000000" points="271.6117,-46.1816 268.1116,-36.1816 264.6117,-46.1816 271.6117,-46.1816"/>
</g>
</g>
</svg>